<?xml version="1.0" encoding="utf-8"?>
<!DOCTYPE svg PUBLIC "-//W3C//DTD SVG 1.1//EN" "http://www.w3.org/Graphics/SVG/1.1/DTD/svg11.dtd">
<svg version="1.1" id="Layer_1" xmlns="http://www.w3.org/2000/svg" xmlns:xlink="http://www.w3.org/1999/xlink" x="0px" y="0px"
	 viewBox="0 0 512 512" enable-background="new 0 0 512 512" xml:space="preserve">
<g>
	<rect fill="#f5d793" width="512" height="512"/>
	<g>
		<path fill="#324A5E" d="M400.1,180.1v107.2c0,6.2-5,11.2-11.2,11.2h-9v33.4l-33.4-33.4H233.3c-6.2,0-11.2-5-11.2-11.2v-32.5h118.8
			c7.9,0,14.3-6.4,14.3-14.3v-71.6h33.7C395.1,168.9,400.1,173.9,400.1,180.1z"/>
		<path fill="#FFFFFF" d="M355.2,158.9v81.6c0,7.9-6.4,14.3-14.3,14.3H196.2l-42.7,42.7v-42.7h-11.5c-7.9,0-14.3-6.4-14.3-14.3
			v-59.9c3.1-5.1,4.9-11,4.9-17.4c0-6.4-1.8-12.4-4.9-17.4v-42.3c0-7.9,6.4-14.3,14.3-14.3h199c6,0,11.3,3.8,13.3,9.1
			c-6.1,8.3-9.6,18.6-9.6,29.7C344.6,139.6,348.6,150.3,355.2,158.9z"/>
		<circle fill="#FFFFFF" cx="150.2" cy="360.4" r="42.1"/>
		<path fill="#4CDBC4" d="M176.9,376.7c-4.7,10-14.9,16.8-26.7,16.8c-11.8,0-21.9-6.9-26.7-16.8c2.4-12.5,13.5-21.9,26.7-21.9
			C163.4,354.8,174.4,364.2,176.9,376.7z"/>
		<circle fill="#4CDBC4" cx="150.2" cy="338.4" r="11.1"/>
		<circle fill="#FFFFFF" cx="382.3" cy="381.2" r="27.1"/>
		<path fill="#2B3B4E" d="M400.1,180.1v7.9c-1.6,0.1-3.2,0.2-4.9,0.2c-15.4,0-29.4-5.8-40-15.2v-4h33.7
			C395.1,168.9,400.1,173.9,400.1,180.1z"/>
		<path fill="#E6E9EE" d="M355.2,158.9v14c-12.4-11.1-20.3-27.1-20.3-45c0-13.9,4.8-26.8,12.8-37c2.9,1.6,5.3,4.2,6.5,7.3
			c-6,8.3-9.6,18.6-9.6,29.7C344.6,139.6,348.6,150.3,355.2,158.9z"/>
		<circle fill="#FFD05B" cx="395.2" cy="127.9" r="50.6"/>
		<path fill="#324A5E" d="M399.4,391.7c-3,6.4-9.6,10.8-17.1,10.8c-7.6,0-14.1-4.4-17.1-10.8c1.6-8,8.7-14.1,17.1-14.1
			C390.7,377.6,397.8,383.6,399.4,391.7z"/>
		<circle fill="#324A5E" cx="382.3" cy="367.1" r="7.1"/>
		<rect x="159.5" y="126.3" fill="#4CDBC4" width="105.4" height="7.3"/>
		<rect x="270.1" y="126.3" fill="#4CDBC4" width="53.1" height="7.3"/>
		<rect x="159.5" y="146.1" fill="#4CDBC4" width="50" height="7.3"/>
		<rect x="214.7" y="146.1" fill="#4CDBC4" width="108.6" height="7.3"/>
		<rect x="159.5" y="165.8" fill="#4CDBC4" width="82.2" height="7.3"/>
		<rect x="247" y="165.8" fill="#4CDBC4" width="76.3" height="7.3"/>
		<rect x="159.5" y="185.6" fill="#4CDBC4" width="17.7" height="7.3"/>
		<rect x="182.4" y="185.6" fill="#4CDBC4" width="140.8" height="7.3"/>
		<rect x="159.5" y="205.4" fill="#4CDBC4" width="132.7" height="7.3"/>
		<path fill="#FFFFFF" d="M406.4,113.1c0-6.6-4.3-9.9-13-9.9c-4.7,0-8.6,1-11.7,3c-0.8,0.5-1.6,0.7-2.5,0.7c-0.9,0-1.7-0.3-2.4-1
			c-0.7-0.7-1-1.5-1-2.4c0-1.5,0.8-2.7,2.3-3.6c4.7-2.9,10.1-4.4,16-4.4c6.3,0,11.2,1.6,14.9,4.7c3.8,3.2,5.7,7.4,5.7,12.6
			c0,5.5-2.9,10.3-8.6,14.5c-3.3,2.5-5.7,4.9-7.2,7.3c-0.9,1.4-1.3,2.8-1.3,4.3c0,1.5-0.4,2.6-1.2,3.2c-0.8,0.7-1.8,1-2.9,1
			c-1.1,0-2-0.3-2.8-1.1c-0.8-0.7-1.1-1.5-1.1-2.5c0-6,2.8-11.2,8.5-15.6c3.6-2.9,6-5.1,6.9-6.4C406,116.1,406.4,114.6,406.4,113.1z
			 M388,154.9c0-1.5,0.5-2.8,1.6-3.8c1.1-1.1,2.3-1.6,3.8-1.6c1.5,0,2.8,0.5,3.8,1.6c1.1,1.1,1.6,2.3,1.6,3.8c0,1.5-0.5,2.8-1.6,3.8
			c-1.1,1.1-2.3,1.6-3.8,1.6c-1.5,0-2.8-0.5-3.8-1.6C388.6,157.7,388,156.4,388,154.9z"/>
		<path fill="#E6E9EE" d="M142.2,163.1c0,12.8-5.7,24.3-14.6,32.2v-14.7c3.1-5.1,4.9-11,4.9-17.4c0-6.4-1.8-12.4-4.9-17.4V131
			C136.5,138.9,142.2,150.3,142.2,163.1z"/>
		<circle fill="#324A5E" cx="99.3" cy="163.2" r="33.2"/>
		<path fill="#FFFFFF" d="M96,179.6c0-0.9,0.3-1.7,1-2.3c0.7-0.7,1.4-1,2.3-1s1.7,0.3,2.3,1c0.7,0.7,1,1.4,1,2.3
			c0,0.9-0.3,1.7-1,2.3c-0.7,0.7-1.4,1-2.3,1s-1.7-0.3-2.3-1C96.4,181.3,96,180.5,96,179.6z M99.3,171.9c-1.2,0-1.8-0.5-1.9-1.6
			l-1-18.4v-5.5c0-0.8,0.3-1.5,0.8-2.1c0.6-0.6,1.2-0.8,2.1-0.8c0.8,0,1.5,0.3,2,0.8c0.5,0.6,0.8,1.2,0.8,2.1v5.5l-1,18.4
			C101.1,171.4,100.5,171.9,99.3,171.9z"/>
	</g>
</g>
</svg>
