<?xml version="1.0" encoding="utf-8"?>
<!DOCTYPE svg PUBLIC "-//W3C//DTD SVG 1.1//EN" "http://www.w3.org/Graphics/SVG/1.1/DTD/svg11.dtd">
<svg version="1.1" id="Layer_1" xmlns="http://www.w3.org/2000/svg" xmlns:xlink="http://www.w3.org/1999/xlink" x="0px" y="0px"
	 viewBox="0 0 512 512" enable-background="new 0 0 512 512" xml:space="preserve">
<g>
	<rect x="0" fill="#efa987" width="512" height="512"/>
	<g>
		<g>
			<path fill="#FFFFFF" d="M357.1,257c-4.7,0-8.6,3.4-9.4,7.9H328v-2.5h-9v8.3h9v-2.5h19.7c0.8,4.5,4.7,7.9,9.4,7.9
				c5.3,0,9.6-4.3,9.6-9.6C366.7,261.3,362.4,257,357.1,257z M357.1,272.8c-3.4,0-6.2-2.8-6.2-6.2c0-3.4,2.8-6.2,6.2-6.2
				c3.4,0,6.2,2.8,6.2,6.2C363.4,270,360.6,272.8,357.1,272.8z"/>
			<path fill="#FFFFFF" d="M411.9,250.2c-4.7,0-8.6,3.4-9.4,7.9h-20.7L369,245.3h-41v-2.5h-9v8.3h9v-2.5h39.6l12.8,12.8h22
				c0.8,4.5,4.7,7.9,9.4,7.9c5.3,0,9.6-4.3,9.6-9.6C421.5,254.5,417.2,250.2,411.9,250.2z M411.9,266c-3.4,0-6.2-2.8-6.2-6.2
				c0-3.4,2.8-6.2,6.2-6.2c3.4,0,6.2,2.8,6.2,6.2C418.2,263.2,415.4,266,411.9,266z"/>
			<path fill="#FFFFFF" d="M394.3,163c-4.7,0-8.6,3.4-9.4,7.9h-21.9l-15.4,15.4H328v-2.5h-9v8.3h9v-2.5h20.9l15.4-15.4h20.5
				c0.8,4.5,4.7,7.9,9.4,7.9c5.3,0,9.6-4.3,9.6-9.6C403.9,167.3,399.6,163,394.3,163z M394.3,178.9c-3.4,0-6.2-2.8-6.2-6.2
				c0-3.4,2.8-6.2,6.2-6.2c3.5,0,6.2,2.8,6.2,6.2C400.5,176.1,397.8,178.9,394.3,178.9z"/>
			<path fill="#FFFFFF" d="M369,198.1c-4.7,0-8.6,3.4-9.4,7.9H328v-2.5h-9v8.3h9v-2.5h31.6c0.8,4.5,4.7,7.9,9.4,7.9
				c5.3,0,9.6-4.3,9.6-9.6C378.6,202.4,374.3,198.1,369,198.1z M369,213.9c-3.4,0-6.2-2.8-6.2-6.2c0-3.5,2.8-6.3,6.2-6.3
				c3.4,0,6.2,2.8,6.2,6.3C375.3,211.1,372.5,213.9,369,213.9z"/>
			<path fill="#FFFFFF" d="M411.9,202.3c-4.7,0-8.6,3.4-9.4,7.9h-11.8l-15.4,15.4H328v-2.5h-9v8.3h9v-2.5h48.7l15.4-15.4h10.4
				c0.8,4.5,4.7,7.9,9.4,7.9c5.3,0,9.6-4.3,9.6-9.6C421.5,206.5,417.2,202.3,411.9,202.3z M411.9,218.1c-3.4,0-6.2-2.8-6.2-6.2
				c0-3.4,2.8-6.2,6.2-6.2c3.4,0,6.2,2.8,6.2,6.2C418.2,215.3,415.4,218.1,411.9,218.1z"/>
		</g>
		<g>
			<path fill="#FFFFFF" d="M184,262.4v2.5h-20.9l-15.4,15.4h-20.6c-0.8-4.5-4.7-7.9-9.4-7.9c-5.3,0-9.6,4.3-9.6,9.6
				c0,5.3,4.3,9.6,9.6,9.6c4.7,0,8.7-3.4,9.4-7.9h22l15.4-15.4H184v2.5h9v-8.3H184z M117.7,288.3c-3.4,0-6.2-2.8-6.2-6.2
				c0-3.4,2.8-6.2,6.2-6.2c3.4,0,6.2,2.8,6.2,6.2C123.9,285.5,121.1,288.3,117.7,288.3z"/>
			<path fill="#FFFFFF" d="M184,242.8v2.5h-31.6c-0.8-4.5-4.7-7.9-9.4-7.9c-5.3,0-9.6,4.3-9.6,9.6c0,5.3,4.3,9.6,9.6,9.6
				c4.7,0,8.6-3.4,9.4-7.9H184v2.5h9v-8.3H184z M143,253.2c-3.5,0-6.3-2.8-6.3-6.2s2.8-6.2,6.3-6.2c3.4,0,6.2,2.8,6.2,6.2
				S146.4,253.2,143,253.2z"/>
			<path fill="#FFFFFF" d="M184,223.2v2.5h-48.7l-15.4,15.4h-10.4c-0.8-4.5-4.7-7.9-9.4-7.9c-5.3,0-9.6,4.3-9.6,9.6
				c0,5.3,4.3,9.6,9.6,9.6c4.7,0,8.6-3.4,9.4-7.9h11.8l15.4-15.4H184v2.5h9v-8.3H184z M100.1,249c-3.4,0-6.2-2.8-6.2-6.2
				c0-3.4,2.8-6.2,6.2-6.2c3.4,0,6.2,2.8,6.2,6.2C106.3,246.2,103.5,249,100.1,249z"/>
			<path fill="#FFFFFF" d="M184,203.5v2.5h-39.6l-12.8-12.8h-22c-0.8-4.5-4.7-7.9-9.4-7.9c-5.3,0-9.6,4.3-9.6,9.6
				c0,5.3,4.3,9.6,9.6,9.6c4.7,0,8.6-3.4,9.4-7.9h20.7l12.8,12.8h41v2.5h9v-8.3H184z M100.1,201.1c-3.4,0-6.2-2.8-6.2-6.2
				c0-3.4,2.8-6.2,6.2-6.2c3.4,0,6.2,2.8,6.2,6.2C106.3,198.3,103.5,201.1,100.1,201.1z"/>
			<path fill="#FFFFFF" d="M184,183.9v2.5h-19.7c-0.8-4.5-4.7-7.9-9.4-7.9c-5.3,0-9.6,4.3-9.6,9.6c0,5.3,4.3,9.6,9.6,9.6
				c4.7,0,8.6-3.4,9.4-7.9H184v2.5h9v-8.3H184z M154.9,194.3c-3.4,0-6.2-2.8-6.2-6.2c0-3.4,2.8-6.2,6.2-6.2c3.4,0,6.2,2.8,6.2,6.2
				C161.1,191.5,158.3,194.3,154.9,194.3z"/>
		</g>
		<g>
			<path fill="#FFFFFF" d="M312.4,356.2v-21.9l-15.4-15.4v-19.5h2.5v-9h-8.3v9h2.5v20.9l15.4,15.4v20.5c-4.5,0.8-7.9,4.7-7.9,9.4
				c0,5.3,4.3,9.6,9.6,9.6c5.3,0,9.6-4.3,9.6-9.6C320.3,360.9,316.9,357,312.4,356.2z M310.7,371.9c-3.4,0-6.2-2.8-6.2-6.2
				c0-3.4,2.8-6.2,6.2-6.2c3.4,0,6.2,2.8,6.2,6.2C316.9,369.1,314.1,371.9,310.7,371.9z"/>
			<path fill="#FFFFFF" d="M277.3,330.9v-31.6h2.5v-9h-8.3v9h2.5v31.6c-4.5,0.8-7.9,4.7-7.9,9.4c0,5.3,4.3,9.6,9.6,9.6
				c5.3,0,9.6-4.3,9.6-9.6C285.2,335.6,281.8,331.7,277.3,330.9z M275.6,346.6c-3.4,0-6.2-2.8-6.2-6.2c0-3.4,2.8-6.2,6.2-6.2
				c3.4,0,6.2,2.8,6.2,6.2C281.9,343.8,279.1,346.6,275.6,346.6z"/>
			<path fill="#FFFFFF" d="M218.4,319v-19.7h2.5v-9h-8.3v9h2.5V319c-4.5,0.8-7.9,4.7-7.9,9.4c0,5.3,4.3,9.6,9.6,9.6
				c5.3,0,9.6-4.3,9.6-9.6C226.3,323.7,222.9,319.8,218.4,319z M216.8,334.7c-3.4,0-6.2-2.8-6.2-6.2c0-3.4,2.8-6.2,6.2-6.2
				c3.4,0,6.2,2.8,6.2,6.2C223,331.9,220.2,334.7,216.8,334.7z"/>
			<path fill="#FFFFFF" d="M273.1,373.8v-11.8l-15.4-15.4v-47.3h2.5v-9h-8.3v9h2.5V348l15.4,15.4v10.4c-4.5,0.8-7.9,4.7-7.9,9.4
				c0,5.3,4.3,9.6,9.6,9.6c5.3,0,9.6-4.3,9.6-9.6C281.1,378.5,277.6,374.6,273.1,373.8z M271.5,389.5c-3.4,0-6.2-2.8-6.2-6.2
				c0-3.4,2.8-6.2,6.2-6.2c3.4,0,6.2,2.8,6.2,6.2C277.7,386.7,274.9,389.5,271.5,389.5z"/>
			<path fill="#FFFFFF" d="M232.2,290.3v9h2.5V339l-12.8,12.8v22c-4.5,0.8-7.9,4.7-7.9,9.4c0,5.3,4.3,9.6,9.6,9.6
				c5.3,0,9.6-4.3,9.6-9.6c0-4.7-3.4-8.6-7.9-9.4v-20.7l12.8-12.8v-41h2.5v-9H232.2z M229.8,383.2c0,3.4-2.8,6.2-6.2,6.2
				c-3.4,0-6.2-2.8-6.2-6.2c0-3.4,2.8-6.2,6.2-6.2C227,377,229.8,379.8,229.8,383.2z"/>
		</g>
		<g>
			<path fill="#FFFFFF" d="M218.4,155.3v-20.9L203,119V98.4c4.5-0.8,7.9-4.7,7.9-9.4c0-5.3-4.3-9.6-9.6-9.6c-5.3,0-9.6,4.3-9.6,9.6
				c0,4.7,3.4,8.6,7.9,9.4v22l15.4,15.4v19.5h-2.5v9h8.3v-9H218.4z M195.1,89c0-3.4,2.8-6.2,6.2-6.2c3.4,0,6.2,2.8,6.2,6.2
				c0,3.4-2.8,6.2-6.2,6.2C197.9,95.2,195.1,92.4,195.1,89z"/>
			<path fill="#FFFFFF" d="M246,114.3c0-5.3-4.3-9.6-9.6-9.6c-5.3,0-9.6,4.3-9.6,9.6c0,4.7,3.4,8.7,7.9,9.4v31.6h-2.5v9h8.3v-9H238
				v-31.6C242.5,122.9,246,119,246,114.3z M236.4,120.5c-3.4,0-6.2-2.8-6.2-6.2c0-3.4,2.8-6.2,6.2-6.2c3.4,0,6.2,2.8,6.2,6.2
				C242.6,117.7,239.8,120.5,236.4,120.5z"/>
			<path fill="#FFFFFF" d="M304.8,126.2c0-5.3-4.3-9.6-9.6-9.6c-5.3,0-9.6,4.3-9.6,9.6c0,4.7,3.4,8.6,7.9,9.4v19.7h-2.5v9h8.3v-9
				h-2.5v-19.7C301.4,134.8,304.8,130.9,304.8,126.2z M295.3,132.5c-3.4,0-6.2-2.8-6.2-6.2c0-3.4,2.8-6.2,6.2-6.2
				c3.4,0,6.2,2.8,6.2,6.2C301.5,129.6,298.7,132.5,295.3,132.5z"/>
			<path fill="#FFFFFF" d="M288.5,61.8c-5.3,0-9.6,4.3-9.6,9.6c0,4.7,3.4,8.6,7.9,9.4v20.7L274,114.3v41h-2.5v9h8.3v-9h-2.5v-39.6
				l12.8-12.8v-22c4.5-0.8,7.9-4.7,7.9-9.4C298,66.1,293.7,61.8,288.5,61.8z M288.5,77.6c-3.4,0-6.2-2.8-6.2-6.2
				c0-3.5,2.8-6.3,6.2-6.3c3.4,0,6.2,2.8,6.2,6.3C294.7,74.8,291.9,77.6,288.5,77.6z"/>
			<path fill="#FFFFFF" d="M257.6,155.3v-48.7l-15.4-15.4V80.8c4.5-0.8,7.9-4.7,7.9-9.4c0-5.3-4.3-9.6-9.6-9.6
				c-5.3,0-9.6,4.3-9.6,9.6c0,4.7,3.4,8.6,7.9,9.4v11.8l15.4,15.4v47.3h-2.5v9h8.3v-9H257.6z M234.3,71.4c0-3.5,2.8-6.3,6.2-6.3
				c3.4,0,6.2,2.8,6.2,6.3c0,3.4-2.8,6.2-6.2,6.2C237.1,77.6,234.3,74.8,234.3,71.4z"/>
		</g>
		<path fill="#324A5E" d="M314.7,290.3H197.3c-2.3,0-4.2-1.9-4.2-4.2V168.6c0-2.3,1.9-4.2,4.2-4.2h117.5c2.3,0,4.2,1.9,4.2,4.2
			v117.5C319,288.4,317.1,290.3,314.7,290.3z"/>
		<polygon fill="#2B3B4E" points="288.2,177.6 206.3,177.6 206.3,277 305.7,277 305.7,195.1 		"/>
		<circle fill="#ACB3BA" cx="302.5" cy="180.8" r="3.2"/>
	</g>
</g>
</svg>
