<?xml version="1.0" encoding="utf-8"?>
<!DOCTYPE svg PUBLIC "-//W3C//DTD SVG 1.1//EN" "http://www.w3.org/Graphics/SVG/1.1/DTD/svg11.dtd">
<svg version="1.1" id="Layer_1" xmlns="http://www.w3.org/2000/svg" xmlns:xlink="http://www.w3.org/1999/xlink" x="0px" y="0px"
	 viewBox="0 0 512 512" enable-background="new 0 0 512 512" xml:space="preserve">
<g>
	<rect fill="#84DBFF" width="512" height="512"/>
	<g>
		<circle fill="#54C0EB" cx="256" cy="175.7" r="118.3"/>
		<g>
			<path fill="#FFFFFF" d="M229.7,257.2h52.7c0.3-20.7,6.8-40.8,18.2-58.1c5.5-8.4,8.8-18.5,8.8-29.3c0-37.5-38.8-66-78.5-47.6
				c-9.9,4.6-17.9,12.6-22.5,22.5c-9.4,20.3-6.6,40.3,3.5,55.1C223.4,216.7,229.3,236.8,229.7,257.2L229.7,257.2z"/>
			<g>
				<path fill="#E6E9EE" d="M266.2,260.2h-21.1l0.4-1.5c5.7-22-16.5-82.9-16.7-83.5l-1.2-3.4l3,2c7.8,5.3,16,8.2,25.1,8.7
					c9.1-0.5,17.3-3.4,25.1-8.7l3-2l-1.2,3.4c-0.2,0.6-22.4,61.5-16.7,83.5L266.2,260.2z M248,257.9h15.2
					c-4.1-20.8,11.5-67.5,16-80.2c-7.3,4.3-15.2,6.8-23.5,7.3l-0.1,0l-0.1,0c-8.3-0.5-16.2-2.9-23.5-7.3
					C236.6,190.4,252.2,237,248,257.9z"/>
			</g>
			<path fill="#FFFFFF" d="M229.6,344.6h52.7c0,0,0,0,0,0l-4.4,7.3l-22,36.6l-22-36.7l0,0l-4.2-7v0L229.6,344.6z"/>
			<polygon fill="#324A5E" points="246.8,373.1 256,388.4 265.2,373.1 			"/>
			<path fill="#FF7058" d="M264.8,344.2v-87h17.5l0,87c0,0.1,0,0.2,0,0.3c0,0,0,0,0,0l-4.4,7.3c-1.3,0.7-2.8,1.2-4.4,1.2
				c-2.4,0-4.6-1-6.2-2.6c-1.5-1.5-2.5-3.6-2.6-5.9C264.8,344.5,264.8,344.4,264.8,344.2z"/>
			<path fill="#F1543F" d="M247.3,257.2h17.5v87c0,4.8-3.9,8.8-8.8,8.8l0,0c-4.8,0-8.8-3.9-8.8-8.8V257.2z"/>
			<path fill="#FF7058" d="M229.7,344.2l0-87h17.5v87c0,0.1,0,0.2,0,0.3c-0.2,4.7-4,8.5-8.8,8.5c-1.7,0-3.2-0.5-4.5-1.3l0,0l-4.2-7
				v0v-0.2C229.7,344.5,229.7,344.4,229.7,344.2z"/>
			<g>
				<g>
					<g>
						<g>
							<path fill="#FFFFFF" d="M256,101L256,101c-0.8,0-1.5-0.7-1.5-1.5v-8.4c0-0.8,0.7-1.5,1.5-1.5l0,0c0.8,0,1.5,0.7,1.5,1.5v8.4
								C257.5,100.4,256.8,101,256,101z"/>
						</g>
						<g>
							<path fill="#FFFFFF" d="M320.3,165.4L320.3,165.4c0-0.8,0.7-1.5,1.5-1.5h8.4c0.8,0,1.5,0.7,1.5,1.5l0,0
								c0,0.8-0.7,1.5-1.5,1.5h-8.4C321,166.8,320.3,166.2,320.3,165.4z"/>
							<path fill="#FFFFFF" d="M180.4,165.4L180.4,165.4c0-0.8,0.7-1.5,1.5-1.5h8.4c0.8,0,1.5,0.7,1.5,1.5l0,0
								c0,0.8-0.7,1.5-1.5,1.5h-8.4C181.1,166.8,180.4,166.2,180.4,165.4z"/>
						</g>
					</g>
					<g>
						<g>
							<path fill="#FFFFFF" d="M301.5,119.9L301.5,119.9c-0.6-0.6-0.6-1.5,0-2.1l5.9-5.9c0.6-0.6,1.5-0.6,2.1,0l0,0
								c0.6,0.6,0.6,1.5,0,2.1l-5.9,5.9C303,120.4,302.1,120.4,301.5,119.9z"/>
							<path fill="#FFFFFF" d="M202.5,218.8L202.5,218.8c-0.6-0.6-0.6-1.5,0-2.1l5.9-5.9c0.6-0.6,1.5-0.6,2.1,0l0,0
								c0.6,0.6,0.6,1.5,0,2.1l-5.9,5.9C204,219.4,203.1,219.4,202.5,218.8z"/>
						</g>
						<g>
							<path fill="#FFFFFF" d="M301.5,210.9L301.5,210.9c0.6-0.6,1.5-0.6,2.1,0l5.9,5.9c0.6,0.6,0.6,1.5,0,2.1l0,0
								c-0.6,0.6-1.5,0.6-2.1,0l-5.9-5.9C300.9,212.3,300.9,211.4,301.5,210.9z"/>
							<path fill="#FFFFFF" d="M202.5,111.9L202.5,111.9c0.6-0.6,1.5-0.6,2.1,0l5.9,5.9c0.6,0.6,0.6,1.5,0,2.1l0,0
								c-0.6,0.6-1.5,0.6-2.1,0l-5.9-5.9C202,113.4,202,112.5,202.5,111.9z"/>
						</g>
					</g>
				</g>
				<g>
					<g>
						<g>
							<path fill="#FFFFFF" d="M231.4,105.9L231.4,105.9c-0.7,0.3-1.6,0-1.9-0.8l-3.2-7.7c-0.3-0.7,0-1.6,0.8-1.9l0,0
								c0.7-0.3,1.6,0,1.9,0.8l3.2,7.7C232.5,104.8,232.1,105.6,231.4,105.9z"/>
						</g>
						<g>
							<path fill="#FFFFFF" d="M315.4,140.7L315.4,140.7c-0.3-0.7,0-1.6,0.8-1.9l7.7-3.2c0.7-0.3,1.6,0,1.9,0.8l0,0
								c0.3,0.7,0,1.6-0.8,1.9l-7.7,3.2C316.6,141.8,315.7,141.5,315.4,140.7z"/>
							<path fill="#FFFFFF" d="M186.2,194.3L186.2,194.3c-0.3-0.7,0-1.6,0.8-1.9l7.7-3.2c0.7-0.3,1.6,0,1.9,0.8l0,0
								c0.3,0.7,0,1.6-0.8,1.9l-7.7,3.2C187.3,195.4,186.5,195,186.2,194.3z"/>
						</g>
					</g>
					<g>
						<g>
							<path fill="#FFFFFF" d="M280.6,105.9L280.6,105.9c-0.7-0.3-1.1-1.2-0.8-1.9l3.2-7.7c0.3-0.7,1.2-1.1,1.9-0.8l0,0
								c0.7,0.3,1.1,1.2,0.8,1.9l-3.2,7.7C282.2,105.9,281.4,106.2,280.6,105.9z"/>
						</g>
						<g>
							<path fill="#FFFFFF" d="M315.4,190L315.4,190c0.3-0.7,1.2-1.1,1.9-0.8l7.7,3.2c0.7,0.3,1.1,1.2,0.8,1.9l0,0
								c-0.3,0.7-1.2,1.1-1.9,0.8l-7.7-3.2C315.5,191.6,315.1,190.7,315.4,190z"/>
							<path fill="#FFFFFF" d="M186.2,136.4L186.2,136.4c0.3-0.7,1.2-1.1,1.9-0.8l7.7,3.2c0.7,0.3,1.1,1.2,0.8,1.9l0,0
								c-0.3,0.7-1.2,1.1-1.9,0.8l-7.7-3.2C186.2,138,185.9,137.2,186.2,136.4z"/>
						</g>
					</g>
				</g>
			</g>
			<line fill="#F1543F" x1="229.6" y1="257.2" x2="282.4" y2="257.2"/>
			<rect x="229.7" y="257.2" fill="#324A5E" width="52.6" height="14.8"/>
		</g>
	</g>
</g>
</svg>
