<?xml version="1.0" standalone="no"?>
<!DOCTYPE svg PUBLIC "-//W3C//DTD SVG 20010904//EN"
 "http://www.w3.org/TR/2001/REC-SVG-20010904/DTD/svg10.dtd">
<svg version="1.0" xmlns="http://www.w3.org/2000/svg"
 width="650.000000pt" height="650.000000pt" viewBox="0 0 650.000000 650.000000"
 preserveAspectRatio="xMidYMid meet">
<metadata>
Created by potrace 1.11, written by Peter Selinger 2001-2013
</metadata>
<g transform="translate(0.000000,650.000000) scale(0.100000,-0.100000)"
fill="#000000" stroke="none">
<path d="M3075 5849 c-749 -57 -1433 -432 -1886 -1034 -229 -305 -398 -684
-469 -1052 -11 -58 -19 -107 -18 -108 2 -1 39 -6 84 -13 101 -14 183 -42 250
-86 l51 -34 7 146 c28 631 92 946 217 1071 66 66 152 78 213 30 31 -24 80
-124 101 -203 27 -107 44 -268 55 -516 21 -500 70 -732 176 -849 41 -47 100
-81 137 -81 72 0 132 91 203 305 136 407 218 574 318 647 31 22 50 28 93 28
172 0 297 -157 453 -570 147 -388 281 -599 431 -674 61 -30 139 -35 194 -12
49 21 120 90 154 150 73 129 106 271 151 656 17 146 42 324 55 395 58 312 173
564 330 720 159 159 287 94 369 -188 84 -289 171 -813 226 -1362 30 -298 41
-383 54 -398 6 -8 38 -24 71 -37 80 -31 220 -101 300 -150 36 -22 67 -40 69
-40 3 0 12 35 22 77 15 67 16 112 10 338 -4 159 -2 302 4 367 21 217 76 474
154 712 l35 109 -26 61 c-272 651 -804 1172 -1452 1425 -351 137 -763 199
-1136 170z"/>
<path d="M4472 4749 c-55 -35 -159 -177 -217 -294 -96 -193 -138 -379 -190
-835 -42 -360 -74 -501 -147 -643 -48 -93 -106 -155 -179 -194 -47 -24 -65
-28 -139 -28 -74 0 -93 4 -145 29 -163 80 -308 300 -459 696 -120 314 -205
459 -303 517 -61 36 -112 37 -149 3 -71 -66 -141 -212 -243 -514 -78 -229
-106 -293 -150 -353 -82 -112 -232 -114 -339 -4 -121 125 -181 357 -202 786
-16 320 -29 471 -50 577 -43 210 -100 271 -185 196 -61 -53 -101 -150 -135
-327 -37 -189 -47 -305 -74 -826 l-4 -80 47 -71 c50 -74 105 -194 127 -279 8
-27 23 -131 34 -230 25 -211 41 -300 77 -410 81 -253 246 -425 497 -520 l65
-24 6 47 c24 169 77 372 130 495 47 111 92 180 156 246 96 97 201 141 339 141
118 0 211 -54 289 -167 62 -91 123 -306 141 -493 6 -63 12 -115 13 -117 2 -1
106 98 232 220 309 298 434 394 647 497 203 98 382 131 601 112 115 -11 244
-32 341 -57 l29 -8 -6 48 c-4 26 -16 141 -27 254 -60 608 -153 1168 -237 1436
-31 97 -47 131 -81 168 -31 33 -65 35 -110 6z"/>
<path d="M5712 4018 c-42 -145 -95 -367 -114 -471 -20 -110 -22 -160 -23 -492
-2 -335 -4 -377 -22 -443 l-20 -73 88 -69 88 -70 36 111 c116 368 143 797 75
1197 -22 129 -79 352 -89 352 -4 0 -12 -19 -19 -42z"/>
<path d="M683 3523 c-4 -27 -8 -147 -7 -268 0 -309 33 -520 125 -801 42 -132
131 -345 135 -328 3 9 66 581 119 1069 l24 230 -32 28 c-71 63 -216 117 -314
117 l-42 0 -8 -47z"/>
<path d="M1146 3289 c-3 -24 -35 -314 -71 -644 -36 -330 -69 -609 -74 -620 -6
-16 4 -41 49 -115 191 -314 463 -597 777 -808 53 -36 62 -39 67 -24 24 80 77
414 86 537 6 83 13 167 16 187 5 31 2 39 -13 44 -274 96 -443 234 -553 454
-70 139 -103 279 -140 585 -12 94 -25 187 -31 208 -12 47 -74 192 -93 219 -14
19 -15 18 -20 -23z"/>
<path d="M4298 2820 c-82 -13 -161 -37 -258 -79 -207 -90 -366 -208 -645 -481
-115 -113 -232 -225 -259 -248 l-49 -42 7 -87 c38 -466 203 -730 506 -808 101
-26 238 -18 315 19 97 47 182 143 314 355 138 222 209 321 295 417 143 157
299 244 441 244 135 0 299 -52 426 -136 57 -37 86 -51 94 -44 16 13 115 205
159 309 30 70 34 85 22 95 -7 6 -45 37 -83 69 -39 31 -75 57 -80 57 -5 0 -16
-12 -24 -26 -22 -43 -113 -119 -156 -132 -165 -49 -284 72 -353 360 -11 45
-23 84 -27 88 -13 12 -122 38 -223 55 -116 19 -345 27 -422 15z"/>
<path d="M2572 2769 c-150 -25 -281 -152 -364 -353 -52 -126 -135 -493 -115
-512 12 -12 139 -34 252 -43 222 -17 419 17 578 102 l77 41 0 47 c0 92 -21
255 -46 354 -72 282 -192 397 -382 364z"/>
<path d="M5040 2705 c0 -24 51 -178 76 -226 69 -138 185 -146 281 -21 18 24
33 47 33 52 0 19 -224 144 -340 190 -41 16 -50 17 -50 5z"/>
<path d="M4853 2011 c-73 -25 -155 -82 -237 -165 -92 -92 -164 -189 -293 -394
-141 -224 -182 -280 -249 -341 -165 -151 -402 -174 -631 -61 -235 116 -365
349 -418 748 -8 62 -15 114 -15 115 0 2 -38 -16 -85 -39 -47 -23 -125 -52
-173 -64 -154 -41 -496 -37 -649 6 -28 8 -29 2 -43 -196 -8 -109 -25 -234 -51
-368 -21 -111 -39 -212 -39 -223 0 -16 30 -35 152 -94 192 -92 311 -137 502
-185 244 -62 355 -75 636 -75 281 0 393 14 635 75 597 152 1096 490 1468 995
37 50 67 95 67 100 0 15 -114 89 -191 125 -127 59 -286 76 -386 41z"/>
</g>
</svg>
