<?xml version="1.0" encoding="utf-8"?>
<!DOCTYPE svg PUBLIC "-//W3C//DTD SVG 1.1//EN" "http://www.w3.org/Graphics/SVG/1.1/DTD/svg11.dtd">
<svg version="1.1" id="Layer_1" xmlns="http://www.w3.org/2000/svg" xmlns:xlink="http://www.w3.org/1999/xlink" x="0px" y="0px"
	 viewBox="0 0 512 512" enable-background="new 0 0 512 512" xml:space="preserve">
<g>
	<rect fill="#6bbcb6" width="512" height="512"/>
	<g>
		<path fill="#84DBFF" d="M357,119.8v243.5c0,7.8-6.3,14.1-14.1,14.1H165.7c-7.8,0-14.1-6.3-14.1-14.1V119.8
			c0-7.8,6.3-14.1,14.1-14.1h43.8v4.4h95.6v-4.4h37.8C350.7,105.7,357,112,357,119.8z"/>
		<polygon fill="#FFFFFF" points="344.9,123.1 344.9,351.3 163.7,351.3 163.7,123.1 209.5,123.1 209.5,130.1 305.1,130.1
			305.1,123.1 		"/>
		<rect x="209.5" y="110.1" fill="#CED5E0" width="95.6" height="20"/>
		<path fill="#E6E9EE" d="M272.1,101.6c3.1-3.5,5.1-8.1,5.1-13.2c0-11-8.9-19.9-19.9-19.9c-11,0-19.9,8.9-19.9,19.9
			c0,5.1,1.9,9.7,5.1,13.2h-33v8.6h95.6v-8.6H272.1z M257.3,97.6c-5.1,0-9.2-4.1-9.2-9.2c0-5.1,4.1-9.2,9.2-9.2
			c5.1,0,9.2,4.1,9.2,9.2C266.6,93.4,262.4,97.6,257.3,97.6z"/>
		<rect x="177.5" y="144.4" fill="#E6E9EE" width="153.5" height="6.9"/>
		<rect x="177.5" y="159.2" fill="#E6E9EE" width="153.5" height="6.9"/>
		<rect x="177.5" y="174.1" fill="#E6E9EE" width="153.5" height="6.9"/>
		<rect x="177.5" y="188.9" fill="#E6E9EE" width="69.6" height="6.9"/>
		<path fill="#54C0EB" d="M357,197v152.2c-4,0.6-8,0.9-12.1,0.9V196C349,196,353,196.4,357,197z"/>
		<path fill="#E6E9EE" d="M267.8,273.1c0,42.5,34.6,77.1,77.1,77.1V196C302.4,196,267.8,230.6,267.8,273.1z"/>
		<circle fill="#FFD05B" cx="344.9" cy="273.1" r="63.7"/>
		<path fill="#FF7058" d="M376.6,217.9c-9.3-5.4-20.2-8.5-31.7-8.5c-6.1,0-12,0.9-17.6,2.5l17.6,61.2L376.6,217.9z"/>
		<path fill="#324A5E" d="M376.6,217.9L376.6,217.9l-31.7,55.2l52.4-36C391.9,229.2,384.9,222.6,376.6,217.9z"/>
		<path fill="#F9B54C" d="M397.3,237.1l-52.4,36l62-14.4C405.1,250.8,401.7,243.5,397.3,237.1z"/>
		<path fill="#324A5E" d="M231.6,323.2l-119.1-99.5c-1-0.8-2.4-0.7-3.2,0.3l-5.4,6.3c-0.8,1-0.7,2.4,0.3,3.2L223.3,333L231.6,323.2z
			"/>
		<path fill="#FF7058" d="M122.8,232.3l-10.2-8.6c-1-0.8-2.4-0.7-3.2,0.3l-5.4,6.3c-0.8,1-0.7,2.4,0.3,3.2l10.2,8.6L122.8,232.3z"/>
		<polygon fill="#FFFFFF" points="231.6,323.2 237.8,336.8 223.3,333 		"/>
		<polygon fill="#324A5E" points="235.8,332.4 233.1,335.6 237.8,336.8 		"/>
		<path fill="#E6E9EE" d="M196.5,227.9l-5.6-5.6l5.6-5.6c1-1,1-2.5,0-3.5c-1-1-2.5-1-3.5,0l-5.6,5.6l-5.6-5.6c-1-1-2.5-1-3.5,0
			c-1,1-1,2.5,0,3.5l5.6,5.6l-5.6,5.6c-1,1-1,2.5,0,3.5c1,1,2.5,1,3.5,0l5.6-5.6l5.6,5.6c1,1,2.5,1,3.5,0
			C197.5,230.4,197.5,228.8,196.5,227.9z"/>
		<path fill="#E6E9EE" d="M248.4,279.8l-5.6-5.6l5.6-5.6c1-1,1-2.5,0-3.5c-1-1-2.5-1-3.5,0l-5.6,5.6l-5.6-5.6c-1-1-2.5-1-3.5,0
			c-1,1-1,2.5,0,3.5l5.6,5.6l-5.6,5.6c-1,1-1,2.5,0,3.5c1,1,2.5,1,3.5,0l5.6-5.6l5.6,5.6c1,1,2.5,1,3.5,0
			C249.4,282.3,249.4,280.7,248.4,279.8z"/>
		<path fill="#FF7058" d="M239.9,209.4c-5.1,0-9.2,4.1-9.2,9.2c0,5.1,4.1,9.2,9.2,9.2c5.1,0,9.2-4.1,9.2-9.2
			C249.1,213.5,245,209.4,239.9,209.4z M239.9,224c-3,0-5.5-2.4-5.5-5.5c0-3,2.5-5.4,5.5-5.4c3,0,5.5,2.4,5.5,5.4
			C245.4,221.6,242.9,224,239.9,224z"/>
		<path fill="#FF7058" d="M190.8,257.8c-5.1,0-9.2,4.1-9.2,9.2c0,5.1,4.1,9.2,9.2,9.2c5.1,0,9.2-4.1,9.2-9.2
			C200,262,195.9,257.8,190.8,257.8z M190.8,272.5c-3,0-5.5-2.4-5.5-5.5c0-3,2.4-5.5,5.5-5.5s5.5,2.4,5.5,5.5
			C196.3,270.1,193.8,272.5,190.8,272.5z"/>
		<path fill="#FF7058" d="M228.4,221.6l-11.8-8.3c-0.8-0.5-1.8-0.3-2.3,0.4c-0.5,0.8-0.3,1.8,0.4,2.3l8.5,6
			c-28.7,5.1-26.4,32.9-26.4,33.2c0.1,0.9,0.8,1.5,1.7,1.5c0.1,0,0.1,0,0.2,0c0.9-0.1,1.6-0.9,1.5-1.8c-0.1-1.1-1.9-24.7,23.3-29.5
			l-6,7.6c-0.6,0.7-0.4,1.8,0.3,2.3c0.3,0.2,0.7,0.4,1,0.4c0.5,0,1-0.2,1.3-0.6l8.7-11.1c0.3-0.4,0.4-0.8,0.3-1.3
			C229,222.3,228.8,221.9,228.4,221.6z"/>
	</g>
</g>
</svg>
