<?xml version="1.0" encoding="utf-8"?>
<!DOCTYPE svg PUBLIC "-//W3C//DTD SVG 1.1//EN" "http://www.w3.org/Graphics/SVG/1.1/DTD/svg11.dtd">
<svg version="1.1" id="Layer_1" xmlns="http://www.w3.org/2000/svg" xmlns:xlink="http://www.w3.org/1999/xlink" x="0px" y="0px"
	 viewBox="0 0 512 512" enable-background="new 0 0 512 512" xml:space="preserve">
<g>
	<rect fill="#324A5E" width="512" height="512"/>
	<g>
		<path fill="#FFFFFF" d="M227.6,134.9v234.9h65.1v0.4c0,11.3-9.1,20.4-20.4,20.4H119.9c-11.3,0-20.4-9.1-20.4-20.4V102
			c0-11.2,9.1-20.4,20.4-20.4h152.4c11.2,0,20.4,9.1,20.4,20.4v32.9H227.6z"/>
		<polygon fill="#FFD05B" points="288.5,114.4 288.5,134.9 227.6,134.9 227.6,349.3 103.6,349.3 103.6,114.4 		"/>
		<rect x="288.5" y="127.2" fill="#E6E9EE" width="4.1" height="7.7"/>
		<path fill="#E6E9EE" d="M227.6,369.8h65.1v0.4c0,2.6-0.5,5-1.4,7.3h-71.4v-28.2h7.7V369.8z"/>
		<polygon fill="#F9B54C" points="288.5,127.2 288.5,134.9 227.6,134.9 227.6,349.3 219.9,349.3 219.9,127.2 		"/>
		<rect x="227.6" y="134.9" fill="#FFFFFF" width="184.9" height="234.9"/>
		<rect x="227.6" y="134.9" fill="#84DBFF" width="184.9" height="19"/>
		<rect x="227.6" y="134.9" fill="#84DBFF" width="184.9" height="19"/>
		<path fill="#2B3B4E" d="M183.9,96.1L183.9,96.1c0-1.2,1-2.2,2.2-2.2h29.7c1.2,0,2.2,1,2.2,2.2l0,0c0,1.2-1,2.2-2.2,2.2h-29.7
			C184.9,98.3,183.9,97.4,183.9,96.1z"/>
		<path fill="#2B3B4E" d="M174.1,96.1L174.1,96.1c0-1.2,1-2.2,2.2-2.2h1.8c1.2,0,2.2,1,2.2,2.2l0,0c0,1.2-1,2.2-2.2,2.2h-1.8
			C175.1,98.3,174.1,97.4,174.1,96.1z"/>
		<circle fill="#2B3B4E" cx="231.4" cy="103.1" r="2.5"/>
		<circle fill="#2B3B4E" cx="225.1" cy="103.1" r="2.5"/>
		<circle fill="#2B3B4E" cx="263" cy="97.9" r="5.8"/>
		<circle fill="#2B3B4E" cx="196.1" cy="369.8" r="11.1"/>
		<rect x="239.7" y="282.9" fill="#4CDBC4" width="32.5" height="32.5"/>
		<rect x="282.3" y="282.9" fill="#E6E9EE" width="32.5" height="32.5"/>
		<rect x="324.9" y="282.9" fill="#324A5E" width="32.5" height="32.5"/>
		<rect x="367.5" y="282.9" fill="#FF7058" width="32.5" height="32.5"/>
		<rect x="239.7" y="324" fill="#FF7058" width="32.5" height="32.5"/>
		<rect x="282.3" y="324" fill="#324A5E" width="32.5" height="32.5"/>
		<rect x="324.9" y="324" fill="#4CDBC4" width="32.5" height="32.5"/>
		<rect x="367.5" y="324" fill="#E6E9EE" width="32.5" height="32.5"/>
		<rect x="239.7" y="168.3" fill="#84DBFF" width="79.7" height="103.2"/>
		<rect x="329.9" y="168.3" fill="#E6E9EE" width="70.1" height="8.6"/>
		<rect x="329.9" y="186.9" fill="#E6E9EE" width="70.1" height="8.6"/>
		<rect x="329.9" y="205.5" fill="#E6E9EE" width="70.1" height="8.6"/>
		<rect x="329.9" y="224.2" fill="#E6E9EE" width="70.1" height="8.6"/>
		<rect x="329.9" y="242.8" fill="#E6E9EE" width="70.1" height="8.6"/>
		<rect x="329.9" y="261.4" fill="#E6E9EE" width="70.1" height="8.6"/>
	</g>
</g>
</svg>
